<?xml version="1.0" encoding="UTF-8" standalone="no"?>
<svg
   xmlns:dc="http://purl.org/dc/elements/1.1/"
   xmlns:cc="http://creativecommons.org/ns#"
   xmlns:rdf="http://www.w3.org/1999/02/22-rdf-syntax-ns#"
   xmlns:svg="http://www.w3.org/2000/svg"
   xmlns="http://www.w3.org/2000/svg"
   xmlns:sodipodi="http://sodipodi.sourceforge.net/DTD/sodipodi-0.dtd"
   xmlns:inkscape="http://www.inkscape.org/namespaces/inkscape"
   version="1.0"
   width="512"
   height="512"
   viewBox="0 0 383.99999 383.99999"
   preserveAspectRatio="xMidYMid meet"
   id="svg16"
   sodipodi:docname="1300330.svg"
   inkscape:version="1.0.2 (e86c8708, 2021-01-15)">
  <defs
     id="defs20" />
  <sodipodi:namedview
     pagecolor="#ffffff"
     bordercolor="#666666"
     borderopacity="1"
     objecttolerance="10"
     gridtolerance="10"
     guidetolerance="10"
     inkscape:pageopacity="0"
     inkscape:pageshadow="2"
     inkscape:window-width="1920"
     inkscape:window-height="1027"
     id="namedview18"
     showgrid="false"
     units="px"
     inkscape:snap-nodes="true"
     inkscape:zoom="0.5"
     inkscape:cx="256"
     inkscape:cy="256"
     inkscape:window-x="0"
     inkscape:window-y="25"
     inkscape:window-maximized="1"
     inkscape:current-layer="svg16" />
  <metadata
     id="metadata10">
Created by potrace 1.15, written by Peter Selinger 2001-2017
<rdf:RDF>
  <cc:Work
     rdf:about="">
    <dc:format>image/svg+xml</dc:format>
    <dc:type
       rdf:resource="http://purl.org/dc/dcmitype/StillImage" />
    <dc:title></dc:title>
  </cc:Work>
</rdf:RDF>
</metadata>
  <rect
     style="fill:#ffaaaa;stroke-width:0.243009"
     id="rect22"
     width="384"
     height="384"
     x="1.2441132"
     y="1.4739048" />
  <g
     transform="matrix(0.02349289,0,0,-0.02356378,43.978283,308.7427)"
     fill="#000000"
     stroke="none"
     id="g14"
     style="fill:#ffffff">
    <path
       d="M 1650,9304 C 1032,9247 525,8964 327,8565 243,8395 203,8256 193,8105 168,7683 416,7247 837,6976 c 175,-113 347,-179 943,-364 614,-191 752,-238 1025,-349 429,-174 787,-380 1127,-650 91,-72 229,-202 436,-412 167,-168 313,-318 323,-332 l 19,-27 -262,-265 C 4136,4263 3976,4127 3715,3953 3299,3676 2873,3488 2165,3268 1282,2994 1116,2935 953,2835 781,2729 601,2564 499,2420 314,2159 236,1849 285,1568 c 16,-92 72,-262 112,-342 194,-384 658,-659 1243,-737 120,-16 450,-16 555,0 476,72 790,199 1077,438 313,260 478,610 439,933 -20,158 -106,395 -196,535 -68,107 -191,219 -363,330 -41,26 -70,51 -65,55 4,5 62,43 127,84 153,98 274,156 761,366 658,284 1069,479 1455,691 102,56 214,117 250,136 l 65,35 720,-409 c 1451,-825 3512,-1992 3595,-2035 226,-118 474,-199 760,-250 108,-19 162,-22 400,-22 243,-1 291,2 410,22 170,29 367,80 490,127 97,37 317,142 325,155 3,4 -53,41 -123,82 -2915,1710 -4977,2921 -5139,3019 -104,62 -119,75 -105,85 9,6 676,400 1482,874 1308,771 3438,2027 3817,2251 78,46 141,88 139,93 -1,5 -42,31 -92,58 -496,267 -1075,324 -1711,168 -166,-41 -393,-120 -543,-189 -69,-31 -631,-343 -1250,-693 C 8301,7079 7335,6533 6773,6216 l -1023,-576 -177,96 c -421,229 -1127,569 -1713,826 -461,203 -525,233 -687,331 -84,51 -153,94 -153,97 0,3 21,18 48,35 66,41 330,306 382,384 94,140 163,330 180,496 31,299 -97,613 -354,869 -285,283 -657,453 -1116,511 -125,15 -425,27 -510,19 z m 490,-598 c 322,-74 553,-240 665,-478 48,-101 66,-178 67,-283 1,-194 -63,-353 -201,-498 -143,-151 -330,-231 -571,-246 -244,-15 -426,17 -617,109 -141,67 -238,136 -341,244 -211,223 -276,479 -179,708 29,70 124,204 181,256 100,91 255,163 421,196 117,23 144,24 315,20 118,-3 180,-9 260,-28 z m 209,-6146 c 345,-84 580,-352 598,-680 7,-126 -13,-218 -73,-340 -40,-80 -62,-109 -143,-191 -136,-136 -268,-209 -476,-264 -144,-38 -242,-48 -413,-42 -166,5 -248,21 -385,73 -198,76 -390,276 -449,467 -31,102 -23,242 20,352 127,325 492,590 887,644 109,15 336,5 434,-19 z"
       id="path12"
       style="fill:#ffffff" />
  </g>
</svg>
